<mxfile host="drawio-plugin" modified="2022-08-30T07:54:22.048Z" agent="5.0 (X11; Linux x86_64) AppleWebKit/537.36 (KHTML, like Gecko) Chrome/98.0.4758.102 Safari/537.36" etag="fiHQliJxrk6kR5Ty8PFU" version="15.5.4" type="embed"><diagram id="q9W4Y7cC8nrTPSOR0za-" name="Page-1"><mxGraphModel dx="1875" dy="2265" grid="1" gridSize="10" guides="1" tooltips="1" connect="1" arrows="1" fold="1" page="1" pageScale="1" pageWidth="850" pageHeight="1100" math="0" shadow="0"><root><mxCell id="0"/><mxCell id="1" parent="0"/><mxCell id="IESl1oT55usWLEvTgHgb-24" value="" style="rounded=0;whiteSpace=wrap;html=1;fillStyle=auto;fontColor=#000000;fillColor=none;" parent="1" vertex="1"><mxGeometry x="20" y="-20" width="740" height="430" as="geometry"/></mxCell><mxCell id="IESl1oT55usWLEvTgHgb-27" style="edgeStyle=orthogonalEdgeStyle;rounded=0;orthogonalLoop=1;jettySize=auto;html=1;entryX=0;entryY=0.4;entryDx=0;entryDy=0;entryPerimeter=0;labelBackgroundColor=none;labelBorderColor=none;fontColor=#000000;startArrow=none;startFill=0;endArrow=classic;endFill=1;strokeColor=#B85450;gradientColor=none;" parent="1" source="IESl1oT55usWLEvTgHgb-1" target="IESl1oT55usWLEvTgHgb-26" edge="1"><mxGeometry relative="1" as="geometry"><Array as="points"/></mxGeometry></mxCell><mxCell id="IESl1oT55usWLEvTgHgb-29" value="Metrics" style="edgeLabel;html=1;align=center;verticalAlign=middle;resizable=0;points=[];fontColor=#000000;" parent="IESl1oT55usWLEvTgHgb-27" vertex="1" connectable="0"><mxGeometry x="-0.0899" y="-1" relative="1" as="geometry"><mxPoint as="offset"/></mxGeometry></mxCell><mxCell id="IESl1oT55usWLEvTgHgb-1" value="&lt;div&gt;Time Series Database&lt;/div&gt;&lt;div&gt;&lt;br&gt;&lt;/div&gt;&lt;div&gt;InlfuxDB&lt;br&gt;&lt;/div&gt;" style="shape=cylinder3;whiteSpace=wrap;html=1;boundedLbl=1;backgroundOutline=1;size=15;fillColor=#FFF2CC;strokeColor=#d6b656;fillStyle=auto;" parent="1" vertex="1"><mxGeometry x="590" y="40" width="120" height="140" as="geometry"/></mxCell><mxCell id="IESl1oT55usWLEvTgHgb-31" style="edgeStyle=orthogonalEdgeStyle;rounded=0;orthogonalLoop=1;jettySize=auto;html=1;entryX=0;entryY=0.78;entryDx=0;entryDy=0;entryPerimeter=0;labelBackgroundColor=none;labelBorderColor=none;fontColor=#000000;startArrow=none;startFill=0;endArrow=classic;endFill=1;strokeColor=#7EA6E0;gradientColor=none;" parent="1" source="IESl1oT55usWLEvTgHgb-2" target="IESl1oT55usWLEvTgHgb-26" edge="1"><mxGeometry relative="1" as="geometry"/></mxCell><mxCell id="IESl1oT55usWLEvTgHgb-32" value="Input Data" style="edgeLabel;html=1;align=center;verticalAlign=middle;resizable=0;points=[];fontColor=#000000;" parent="IESl1oT55usWLEvTgHgb-31" vertex="1" connectable="0"><mxGeometry x="0.198" y="-1" relative="1" as="geometry"><mxPoint x="-16" y="-1" as="offset"/></mxGeometry></mxCell><mxCell id="IESl1oT55usWLEvTgHgb-2" value="&lt;div&gt;Object Storage&lt;br&gt;&lt;/div&gt;&lt;div&gt;&lt;br&gt;&lt;/div&gt;&lt;div&gt;Minio&lt;br&gt;&lt;/div&gt;" style="shape=cylinder3;whiteSpace=wrap;html=1;boundedLbl=1;backgroundOutline=1;size=15;fillColor=#fff2cc;strokeColor=#d6b656;" parent="1" vertex="1"><mxGeometry x="590" y="230" width="120" height="140" as="geometry"/></mxCell><mxCell id="IESl1oT55usWLEvTgHgb-5" style="rounded=0;orthogonalLoop=1;jettySize=auto;html=1;fillColor=#f8cecc;strokeColor=#b85450;" parent="1" source="IESl1oT55usWLEvTgHgb-4" target="IESl1oT55usWLEvTgHgb-1" edge="1"><mxGeometry relative="1" as="geometry"/></mxCell><mxCell id="IESl1oT55usWLEvTgHgb-19" value="Metrics" style="edgeLabel;html=1;align=center;verticalAlign=middle;resizable=0;points=[];fontColor=#000000;rotation=13.9;" parent="IESl1oT55usWLEvTgHgb-5" vertex="1" connectable="0"><mxGeometry x="0.3179" y="2" relative="1" as="geometry"><mxPoint x="-34" y="-17" as="offset"/></mxGeometry></mxCell><mxCell id="IESl1oT55usWLEvTgHgb-6" style="rounded=0;orthogonalLoop=1;jettySize=auto;html=1;entryX=0;entryY=0.5;entryDx=0;entryDy=0;entryPerimeter=0;strokeColor=#7EA6E0;" parent="1" source="IESl1oT55usWLEvTgHgb-4" target="IESl1oT55usWLEvTgHgb-2" edge="1"><mxGeometry relative="1" as="geometry"/></mxCell><mxCell id="IESl1oT55usWLEvTgHgb-18" value="Processed Input Data" style="edgeLabel;html=1;align=center;verticalAlign=middle;resizable=0;points=[];fontColor=#000000;rotation=51;" parent="IESl1oT55usWLEvTgHgb-6" vertex="1" connectable="0"><mxGeometry x="-0.7792" y="-1" relative="1" as="geometry"><mxPoint x="81" y="73" as="offset"/></mxGeometry></mxCell><mxCell id="IESl1oT55usWLEvTgHgb-33" style="edgeStyle=orthogonalEdgeStyle;rounded=0;orthogonalLoop=1;jettySize=auto;html=1;entryX=-0.02;entryY=0.038;entryDx=0;entryDy=0;entryPerimeter=0;labelBackgroundColor=none;labelBorderColor=none;fontColor=#000000;startArrow=none;startFill=0;endArrow=classic;endFill=1;strokeColor=#000000;gradientColor=none;" parent="1" source="IESl1oT55usWLEvTgHgb-4" target="IESl1oT55usWLEvTgHgb-26" edge="1"><mxGeometry relative="1" as="geometry"><Array as="points"><mxPoint x="385" y="-71"/></Array></mxGeometry></mxCell><mxCell id="IESl1oT55usWLEvTgHgb-34" value="All Data" style="edgeLabel;html=1;align=center;verticalAlign=middle;resizable=0;points=[];fontColor=#000000;" parent="IESl1oT55usWLEvTgHgb-33" vertex="1" connectable="0"><mxGeometry x="0.2264" y="1" relative="1" as="geometry"><mxPoint as="offset"/></mxGeometry></mxCell><mxCell id="IESl1oT55usWLEvTgHgb-4" value="&lt;div&gt;MQTT&lt;/div&gt;&lt;div&gt;Broker&lt;/div&gt;" style="ellipse;whiteSpace=wrap;html=1;aspect=fixed;" parent="1" vertex="1"><mxGeometry x="345" width="80" height="80" as="geometry"/></mxCell><mxCell id="IESl1oT55usWLEvTgHgb-10" style="edgeStyle=none;rounded=0;orthogonalLoop=1;jettySize=auto;html=1;entryX=0;entryY=0.5;entryDx=0;entryDy=0;exitX=1;exitY=0.25;exitDx=0;exitDy=0;fontColor=#7EA6E0;strokeColor=#7EA6E0;" parent="1" source="IESl1oT55usWLEvTgHgb-9" target="IESl1oT55usWLEvTgHgb-4" edge="1"><mxGeometry relative="1" as="geometry"/></mxCell><mxCell id="IESl1oT55usWLEvTgHgb-16" value="Processed Input Data" style="edgeLabel;html=1;align=center;verticalAlign=middle;resizable=0;points=[];rotation=-26.1;" parent="IESl1oT55usWLEvTgHgb-10" vertex="1" connectable="0"><mxGeometry x="0.1515" relative="1" as="geometry"><mxPoint x="-15" y="-15" as="offset"/></mxGeometry></mxCell><mxCell id="IESl1oT55usWLEvTgHgb-9" value="Data Acquisition&lt;br&gt;&lt;div&gt;and Processing&lt;br&gt;&lt;/div&gt;" style="rounded=0;whiteSpace=wrap;html=1;verticalAlign=middle;horizontal=0;" parent="1" vertex="1"><mxGeometry x="60" y="40" width="120" height="330" as="geometry"/></mxCell><mxCell id="IESl1oT55usWLEvTgHgb-12" value="AI Services" style="ellipse;shape=cloud;whiteSpace=wrap;html=1;fillStyle=auto;shadow=0;sketch=0;" parent="1" vertex="1"><mxGeometry x="285" y="190" width="200" height="180" as="geometry"/></mxCell><mxCell id="IESl1oT55usWLEvTgHgb-14" value="&lt;div&gt;Data from &lt;br&gt;&lt;/div&gt;&lt;div&gt;Industrial Process&lt;/div&gt;" style="shape=flexArrow;endArrow=classic;html=1;rounded=0;entryX=0;entryY=0.5;entryDx=0;entryDy=0;endWidth=26.20689655172414;endSize=8.675862068965518;width=46.896551724137936;fillColor=#d5e8d4;strokeColor=#82b366;gradientColor=none;labelBorderColor=none;labelBackgroundColor=none;" parent="1" target="IESl1oT55usWLEvTgHgb-9" edge="1"><mxGeometry width="50" height="50" relative="1" as="geometry"><mxPoint x="-100" y="205" as="sourcePoint"/><mxPoint x="-80" y="200" as="targetPoint"/></mxGeometry></mxCell><mxCell id="IESl1oT55usWLEvTgHgb-20" style="edgeStyle=none;rounded=0;orthogonalLoop=1;jettySize=auto;html=1;entryX=0.382;entryY=0.094;entryDx=0;entryDy=0;exitX=0.188;exitY=0.875;exitDx=0;exitDy=0;fontColor=#7EA6E0;strokeColor=#7EA6E0;entryPerimeter=0;exitPerimeter=0;" parent="1" source="IESl1oT55usWLEvTgHgb-4" target="IESl1oT55usWLEvTgHgb-12" edge="1"><mxGeometry relative="1" as="geometry"><mxPoint x="190" y="132.5" as="sourcePoint"/><mxPoint x="355" y="50" as="targetPoint"/></mxGeometry></mxCell><mxCell id="IESl1oT55usWLEvTgHgb-21" value="Processed Input Data" style="edgeLabel;html=1;align=center;verticalAlign=middle;resizable=0;points=[];rotation=-90;" parent="IESl1oT55usWLEvTgHgb-20" vertex="1" connectable="0"><mxGeometry x="0.1515" relative="1" as="geometry"><mxPoint x="-16" y="-9" as="offset"/></mxGeometry></mxCell><mxCell id="IESl1oT55usWLEvTgHgb-22" style="rounded=0;orthogonalLoop=1;jettySize=auto;html=1;fillColor=#f8cecc;strokeColor=#b85450;" parent="1" source="IESl1oT55usWLEvTgHgb-12" target="IESl1oT55usWLEvTgHgb-4" edge="1"><mxGeometry relative="1" as="geometry"><mxPoint x="420" y="180" as="sourcePoint"/><mxPoint x="600" y="104.15094339622647" as="targetPoint"/></mxGeometry></mxCell><mxCell id="IESl1oT55usWLEvTgHgb-23" value="Metrics" style="edgeLabel;html=1;align=center;verticalAlign=middle;resizable=0;points=[];fontColor=#000000;rotation=90;" parent="IESl1oT55usWLEvTgHgb-22" vertex="1" connectable="0"><mxGeometry x="0.3179" y="2" relative="1" as="geometry"><mxPoint x="17" y="22" as="offset"/></mxGeometry></mxCell><mxCell id="IESl1oT55usWLEvTgHgb-25" value="PANDA|Drift" style="text;html=1;strokeColor=none;fillColor=none;align=center;verticalAlign=middle;whiteSpace=wrap;rounded=0;shadow=0;sketch=0;fillStyle=auto;fontColor=#000000;" parent="1" vertex="1"><mxGeometry x="630" y="-10" width="120" height="30" as="geometry"/></mxCell><mxCell id="IESl1oT55usWLEvTgHgb-26" value="" style="rounded=0;whiteSpace=wrap;html=1;shadow=0;sketch=0;fillStyle=auto;fontColor=#000000;fillColor=none;" parent="1" vertex="1"><mxGeometry x="820" y="-90" width="120" height="500" as="geometry"/></mxCell><mxCell id="IESl1oT55usWLEvTgHgb-35" value="Drift Python Client" style="text;html=1;strokeColor=none;fillColor=none;align=center;verticalAlign=middle;whiteSpace=wrap;rounded=0;shadow=0;sketch=0;fillStyle=auto;fontColor=#000000;rotation=-90;" parent="1" vertex="1"><mxGeometry x="820" y="150" width="120" height="30" as="geometry"/></mxCell></root></mxGraphModel></diagram></mxfile>
